<?xml version="1.0" encoding="UTF-8" standalone="no"?>
<svg width="14px" height="14px" viewBox="0 0 14 14" version="1.1" xmlns="http://www.w3.org/2000/svg" xmlns:xlink="http://www.w3.org/1999/xlink">
    <!-- Generator: Sketch 41.2 (35397) - http://www.bohemiancoding.com/sketch -->
    <title>setting</title>
    <desc>Created with Sketch.</desc>
    <defs></defs>
    <g id="Page-1" stroke="none" stroke-width="1" fill="none" fill-rule="evenodd">
        <g id="Artboard" transform="translate(-82.000000, -92.000000)" fill="#232324">
            <path d="M96,99 C96,99.519 95.94,100.022 95.833,100.509 L93.732,100.96 L94.897,102.762 C94.348,103.62 93.62,104.348 92.762,104.897 L90.96,103.732 L90.509,105.833 C90.022,105.94 89.519,106 89,106 C88.481,106 87.978,105.94 87.491,105.833 L87.04,103.732 L85.238,104.897 C84.38,104.348 83.652,103.62 83.103,102.762 L84.268,100.96 L82.167,100.509 C82.06,100.022 82,99.519 82,99 C82,98.481 82.06,97.978 82.167,97.491 L84.268,97.04 L83.103,95.238 C83.652,94.38 84.38,93.652 85.238,93.103 L87.04,94.268 L87.491,92.167 C87.978,92.06 88.481,92 89,92 C89.519,92 90.022,92.06 90.509,92.167 L90.96,94.268 L92.762,93.103 C93.62,93.652 94.348,94.38 94.897,95.238 L93.732,97.04 L95.833,97.491 C95.94,97.978 96,98.481 96,99 Z M95.021,98.271 L93.536,97.953 L92.948,96.533 L93.77,95.262 C93.469,94.879 93.121,94.531 92.738,94.23 L91.467,95.052 L90.047,94.464 L89.729,92.979 C89.484,92.949 89.24,92.933 89,92.933 C88.76,92.933 88.516,92.949 88.271,92.979 L87.953,94.464 L86.533,95.052 L85.262,94.23 C84.879,94.531 84.531,94.879 84.23,95.262 L85.052,96.533 L84.464,97.953 L82.979,98.271 C82.949,98.516 82.933,98.76 82.933,99 C82.933,99.24 82.949,99.484 82.979,99.729 L84.464,100.047 L85.052,101.467 L84.23,102.738 C84.531,103.121 84.879,103.469 85.262,103.77 L86.533,102.948 L87.953,103.536 L88.271,105.021 C88.516,105.051 88.76,105.067 89,105.067 C89.24,105.067 89.484,105.051 89.729,105.021 L90.047,103.536 L91.467,102.948 L92.738,103.77 C93.121,103.469 93.469,103.121 93.77,102.738 L92.948,101.467 L93.536,100.047 L95.021,99.729 C95.051,99.484 95.067,99.24 95.067,99 C95.067,98.76 95.051,98.516 95.021,98.271 Z M89,102 C87.343,102 86,100.657 86,99 C86,97.343 87.343,96 89,96 C90.657,96 92,97.343 92,99 C92,100.657 90.657,102 89,102 Z M89,97 C87.895,97 87,97.895 87,99 C87,100.105 87.895,101 89,101 C90.105,101 91,100.105 91,99 C91,97.895 90.105,97 89,97 Z" id="setting"></path>
        </g>
    </g>
</svg>